<svg viewBox="0 0 1024 1024" version="1.1" xmlns="http://www.w3.org/2000/svg" width="32" height="32" xmlns:xlink="http://www.w3.org/1999/xlink"><path d="M382 828H204c-4.4 0-8-3.6-8-8V665c0-4.4-3.6-8-8-8h-48c-4.4 0-8 3.6-8 8v195c0 17.7 14.3 32 32 32h218c4.4 0 8-3.6 8-8v-48c0-4.4-3.6-8-8-8zM884 657h-48c-4.4 0-8 3.6-8 8v155c0 4.4-3.6 8-8 8H642c-4.4 0-8 3.6-8 8v48c0 4.4 3.6 8 8 8h218c17.7 0 32-14.3 32-32V665c0-4.4-3.6-8-8-8zM642 196h178c4.4 0 8 3.6 8 8v155c0 4.4 3.6 8 8 8h48c4.4 0 8-3.6 8-8V164c0-17.7-14.3-32-32-32H642c-4.4 0-8 3.6-8 8v48c0 4.4 3.6 8 8 8zM140 367h48c4.4 0 8-3.6 8-8V204c0-4.4 3.6-8 8-8h178c4.4 0 8-3.6 8-8v-48c0-4.4-3.6-8-8-8H164c-17.7 0-32 14.3-32 32v195c0 4.4 3.6 8 8 8z" fill="#ffffff" /></svg>