<svg viewBox="0 0 1024 1024" version="1.1" xmlns="http://www.w3.org/2000/svg" width="32" height="32" xmlns:xlink="http://www.w3.org/1999/xlink"><path d="M358 657c17.7 0 32 14.3 32 32v195c0 4.4-3.6 8-8 8h-48c-4.4 0-8-3.6-8-8V729c0-4.4-3.6-8-8-8H140c-4.4 0-8-3.6-8-8v-48c0-4.4 3.6-8 8-8h218z m526 0c4.4 0 8 3.6 8 8v48c0 4.4-3.6 8-8 8H706c-4.4 0-8 3.6-8 8v155c0 4.4-3.6 8-8 8h-48c-4.4 0-8-3.6-8-8V689c0-17.7 14.3-32 32-32h218zM690 132c4.4 0 8 3.6 8 8v155c0 4.4 3.6 8 8 8h178c4.4 0 8 3.6 8 8v48c0 4.4-3.6 8-8 8H666c-17.7 0-32-14.3-32-32V140c0-4.4 3.6-8 8-8h48z m-308 0c4.4 0 8 3.6 8 8v195c0 17.7-14.3 32-32 32H140c-4.4 0-8-3.6-8-8v-48c0-4.4 3.6-8 8-8h178c4.4 0 8-3.6 8-8V140c0-4.4 3.6-8 8-8h48z" fill="#ffffff" /></svg>