<svg viewBox="0 0 1024 1024" version="1.1" xmlns="http://www.w3.org/2000/svg" width="32" height="32" xmlns:xlink="http://www.w3.org/1999/xlink"><path d="M470.016 384l0-86.016 84.010667 0 0 86.016-84.010667 0zM512 854.016q139.989333 0 240.981333-100.992t100.992-240.981333-100.992-240.981333-240.981333-100.992-240.981333 100.992-100.992 240.981333 100.992 240.981333 240.981333 100.992zM512 86.016q176 0 301.013333 125.013333t125.013333 301.013333-125.013333 301.013333-301.013333 125.013333-301.013333-125.013333-125.013333-301.013333 125.013333-301.013333 301.013333-125.013333zM470.016 726.016l0-256 84.010667 0 0 256-84.010667 0z" fill="#ffffff"></path></svg>