<svg viewBox="0 0 1024 1024" version="1.1" xmlns="http://www.w3.org/2000/svg" width="32" height="32" xmlns:xlink="http://www.w3.org/1999/xlink"><path d="M768 362.666667h-42.666667v-85.333334c0-119.466667-93.866667-213.333333-213.333333-213.333333s-213.333333 93.866667-213.333333 213.333333v85.333334H256c-46.933333 0-85.333333 38.4-85.333333 85.333333v426.666667c0 46.933333 38.4 85.333333 85.333333 85.333333h512c46.933333 0 85.333333-38.4 85.333333-85.333333v-426.666667c0-46.933333-38.4-85.333333-85.333333-85.333333z m-384-85.333334c0-72.533333 55.466667-128 128-128s128 55.466667 128 128v85.333334H384v-85.333334z m341.333333 597.333334H298.666667c-25.6 0-42.666667-21.333333-42.666667-42.666667v-341.333333c0-25.6 17.066667-42.666667 42.666667-42.666667h426.666666c21.333333 0 42.666667 17.066667 42.666667 42.666667v341.333333c0 21.333333-21.333333 42.666667-42.666667 42.666667z m-213.333333-128c46.933333 0 85.333333-38.4 85.333333-85.333334s-38.4-85.333333-85.333333-85.333333-85.333333 38.4-85.333333 85.333333 38.4 85.333333 85.333333 85.333334z" fill="#ffffff"></path></svg>