<svg viewBox="0 0 1024 1024" version="1.1" xmlns="http://www.w3.org/2000/svg" width="32" height="32" xmlns:xlink="http://www.w3.org/1999/xlink"><path d="M852 132c22.1 0 40 17.9 40 40v680c0 22.1-17.9 40-40 40H172c-22.1 0-40-17.9-40-40V172c0-22.1 17.9-40 40-40h680z m-20 60H192v640h640V192zM455.4 535c12-11.9 31.4-11.9 43.3 0 12 11.9 12 31.3 0 43.3L355.7 721l110.7-0.2c16.9 0 30.6 13.7 30.6 30.6 0 16.9-13.7 30.6-30.6 30.6H312.1c-33.7-0.1-61-27.3-61-61V567c0-16.9 13.7-30.6 30.6-30.6s30.6 13.7 30.6 30.6v110.8L455.4 535z m265.7-309.6c33.6 0.1 60.9 27.2 60.9 60.8v153.7c0 16.9-13.7 30.5-30.6 30.5-16.9 0-30.6-13.7-30.6-30.5V329.4L578.2 471.8c-11.9 11.9-31.3 11.9-43.2 0s-11.9-31.2 0-43.2l142.6-142.3-110.4 0.2c-16.9 0-30.6-13.7-30.6-30.5 0-16.9 13.7-30.5 30.6-30.5h153.9v-0.1z"  fill="#ffffff"/></svg>