<svg viewBox="0 0 1024 1024" version="1.1" xmlns="http://www.w3.org/2000/svg" width="32" height="32" xmlns:xlink="http://www.w3.org/1999/xlink"><path d="M852 132c22.1 0 40 17.9 40 40v680c0 22.1-17.9 40-40 40H172c-22.1 0-40-17.9-40-40V172c0-22.1 17.9-40 40-40h680z m-20 60H192v640h640V192zM447.1 526.4c33.6 0.1 60.9 27.2 60.9 60.8v153.7c0 16.9-13.7 30.5-30.6 30.5s-30.6-13.7-30.6-30.5V630.4L304.2 772.8c-11.9 11.9-31.3 11.9-43.2 0-11.9-11.9-11.9-31.2 0-43.2l142.6-142.3-110.4 0.2c-16.9 0-30.6-13.7-30.6-30.5 0-16.9 13.7-30.5 30.6-30.5l153.9-0.1zM729.4 251c12-11.9 31.4-11.9 43.3 0 12 11.9 12 31.3 0 43.3L629.7 437l110.7-0.2c16.9 0 30.6 13.7 30.6 30.6S757.3 498 740.4 498H586.1c-33.7-0.1-61-27.3-61-61V283c0-16.9 13.7-30.6 30.6-30.6 16.9 0 30.6 13.7 30.6 30.6v110.8L729.4 251z" fill="#ffffff" /></svg>