<svg  viewBox="0 0 1024 1024" version="1.1" xmlns="http://www.w3.org/2000/svg"  width="32" height="32" xmlns:xlink="http://www.w3.org/1999/xlink">
    <path
        d="M512 576c-46.933333 0-85.333333 38.4-85.333333 85.333333s38.4 85.333333 85.333333 85.333334 85.333333-38.4 85.333333-85.333334-38.4-85.333333-85.333333-85.333333z m256-213.333333h-42.666667v-85.333334c0-119.466667-93.866667-213.333333-213.333333-213.333333-98.133333 0-183.466667 64-204.8 157.866667-8.533333 25.6 4.266667 46.933333 29.866667 55.466666 21.333333 4.266667 46.933333-8.533333 51.2-29.866666 12.8-55.466667 64-93.866667 123.733333-93.866667 68.266667 0 128 55.466667 128 128v85.333333H256c-46.933333 0-85.333333 38.4-85.333333 85.333334v426.666666c0 46.933333 38.4 85.333333 85.333333 85.333334h512c46.933333 0 85.333333-38.4 85.333333-85.333334v-426.666666c0-51.2-38.4-89.6-85.333333-89.6z m0 469.333333c0 21.333333-21.333333 42.666667-42.666667 42.666667H298.666667c-25.6 0-42.666667-21.333333-42.666667-42.666667v-341.333333c0-25.6 17.066667-42.666667 42.666667-42.666667h426.666666c21.333333 0 42.666667 17.066667 42.666667 42.666667v341.333333z" fill="#ffffff"></path>
</svg>