<svg viewBox="0 0 1024 1024" version="1.1" xmlns="http://www.w3.org/2000/svg" width="32" height="32" xmlns:xlink="http://www.w3.org/1999/xlink"><path d="M516.827059 103.00579l-205.444322 170.72375h-129.6884c-59.112737 0-107.030123 47.917386-107.030123 107.030123v264.899555c0 59.112737 47.917386 107.030123 107.030123 107.030123h129.6884l205.444322 170.723749c106.152476 52.658821 123.084642-77.093798 123.084641-77.093797V180.099588s-16.932165-129.752618-123.084641-77.093798z m48.163555 736.955913c-1.466313 6.625165-4.281205 14.523988-7.021176 19.714949l-1.113113-0.396011-218.40567-181.512386h-156.756318c-17.702782 0-32.109037-14.406255-32.109037-32.109037v-264.899555c0-17.702782 14.406255-32.109037 32.109037-32.109037h156.756318l218.40567-181.512386 1.113113-0.396011c2.921922 5.576269 5.726112 14.010243 7.021176 19.693542v653.525932zM890.180237 513.20944l45.402178-45.423584a37.44984 37.44984 0 1 0-52.969208-52.969208l-45.402178 45.402178-45.402178-45.402178a37.471246 37.471246 0 0 0-52.990614 52.969208l45.402178 45.423584-45.402178 45.402179a37.460543 37.460543 0 0 0 52.990614 52.969208l45.402178-45.402179 45.402178 45.402179a37.44984 37.44984 0 1 0 52.969208-52.969208l-45.402178-45.402179z" fill="#ffffff"></path></svg>