<svg viewBox="0 0 1024 1024" version="1.1" xmlns="http://www.w3.org/2000/svg" p-id="3169" width="32" height="32" xmlns:xlink="http://www.w3.org/1999/xlink"><path d="M522.274892 99.505905l-205.444322 170.734453h-129.699103c-59.102034 0-107.030123 47.917386-107.030123 107.01942v264.899555c0 59.102034 47.928089 107.030123 107.030123 107.030123h129.699103l205.444322 170.723749c106.141773 52.658821 123.084642-77.093798 123.084641-77.093797V176.610406s-16.942868-129.763321-123.084641-77.104501z m48.163555 736.94521a86.887054 86.887054 0 0 1-7.031879 19.714949l-1.10241-0.396012-218.405669-181.501682h-156.767022c-17.702782 0-32.109037-14.406255-32.109037-32.109037v-264.899555a32.141146 32.141146 0 0 1 32.109037-32.098334h156.767022l218.405669-181.512386c0.385308-0.149842 0.749211-0.267575 1.113113-0.396011 2.921922 5.576269 5.726112 14.010243 7.021176 19.693542v653.504526z" fill="#ffffff"></path><path d="M966.878023 509.730961c0-97.857642-39.483412-186.414365-103.273366-250.857202a34.956038 34.956038 0 0 0-2.847001-2.921923l-0.53515-0.556556-0.053515 0.053515a35.99423 35.99423 0 0 0-23.921233-9.279512c-20.32502 0-36.818362 16.910759-36.818362 37.781634 0 11.366599 4.998307 21.438134 12.725881 28.362982a283.758262 283.758262 0 0 1 79.80166 197.417062c0 76.794113-30.9103 146.481427-80.893367 197.352844a37.781633 37.781633 0 0 0-12.811506 28.320171c0 20.924389 16.77162 37.867258 37.460543 37.867258 10.670903 0 20.250099-4.559483 27.067919-11.805423l0.096327 0.021406c64.260886-64.517758 104.001171-153.481197 104.00117-251.756256z" fill="#ffffff"></path><path d="M827.738863 509.730961c0-54.874344-20.539081-104.782491-54.050212-143.056462a37.792336 37.792336 0 0 0-32.911763-19.276125c-20.924389 0-37.899367 16.825135-37.899366 37.578276 0 20.67822 16.910759 33.00809 10.018019 25.772854l-0.096327 0.128436a142.071785 142.071785 0 0 1 40.018563 98.853021c0 36.261806-13.774777 69.237787-36.154776 94.421975-8.872797 6.89274-14.67383 17.349583-14.673829 29.219224 0 20.753141 17.370989 37.578276 38.787716 37.578276 14.235006 0 26.543471-7.502812 33.297071-18.569727 33.297071-38.220457 53.664904-87.989464 53.664904-142.649748z" fill="#ffffff"></path></svg>