<?xml version="1.0" standalone="no"?><!DOCTYPE svg PUBLIC "-//W3C//DTD SVG 1.1//EN" "http://www.w3.org/Graphics/SVG/1.1/DTD/svg11.dtd"><svg t="1514184495374" class="icon" style="" viewBox="0 0 1024 1024" version="1.1" xmlns="http://www.w3.org/2000/svg" p-id="5687" xmlns:xlink="http://www.w3.org/1999/xlink" width="32" height="32"><defs><style type="text/css"></style></defs><path d="M410.88 794.026667c8.106667 8.106667 5.546667 17.066667-5.973333 18.773333l-215.893334 35.84c-7.68 2.133333-15.786667-2.56-17.92-10.24-0.853333-2.56-0.853333-5.12 0-7.253333l35.84-215.893334c1.706667-11.52 10.24-14.506667 18.773334-5.973333l61.866666 61.866667 120.32-120.32 61.013334 61.013333-120.32 120.32 62.293333 61.866667z m424.533333-627.2l-215.893333 35.84c-11.52 1.706667-14.506667 10.24-5.973333 18.773333l61.866666 61.866667-120.32 120.32 61.013334 61.013333 120.32-120.32 61.866666 61.866667c8.106667 8.106667 17.066667 5.546667 18.773334-5.973334l35.84-215.893333c2.133333-7.68-2.56-15.36-10.24-17.92-2.133333 0-4.693333 0-7.253334 0.426667z" p-id="5688" fill="#5a5a5a"></path></svg>