<svg viewBox="0 0 1024 1024" version="1.1" xmlns="http://www.w3.org/2000/svg" width="32" height="32"><path d="M496 256a47.52 47.52 0 0 0-30.256 11.024l-0.144-0.176-162.592 133.04H143.872v0.128A48 48 0 0 0 96 448v160a48 48 0 0 0 48 48h160.384l163.376 118.816 0.08-0.112c7.936 5.792 17.6 9.296 28.16 9.296a48 48 0 0 0 48-48V304a48 48 0 0 0-48-48z m355.888 272l62.064-62.064a48 48 0 0 0-67.888-67.872L784 460.128l-62.064-62.064a48 48 0 1 0-67.872 67.872L716.112 528l-62.064 62.064a48 48 0 0 0 67.888 67.872L784 595.888l62.064 62.064a48 48 0 0 0 67.872-67.888L851.888 528z" fill="#5a5a5a"></path></svg>
