<svg viewBox="0 0 1024 1024" version="1.1" xmlns="http://www.w3.org/2000/svg" width="32" height="32"><path d="M576 256a47.52 47.52 0 0 0-30.256 11.024l-0.16-0.176-162.592 133.04h-159.136v0.128A48 48 0 0 0 176 448v160a48 48 0 0 0 48 48h160.384l163.36 118.816 0.096-0.112c7.936 5.792 17.6 9.296 28.16 9.296a48 48 0 0 0 48-48V304a48 48 0 0 0-48-48z m190.432 46.816l-45.536 45.552C760.32 397.632 784 460 784 528s-23.68 130.368-63.088 179.632l45.536 45.568A350.512 350.512 0 0 0 848 528c0-85.68-30.672-164.16-81.568-225.184z" fill="#5a5a5a" ></path></svg>
