<svg viewBox="0 0 1024 1024" version="1.1" xmlns="http://www.w3.org/2000/svg" width="32" height="32"><path d="M400 240a47.52 47.52 0 0 0-30.256 11.024l-0.144-0.176-162.592 133.04H47.872v0.128A48 48 0 0 0 0 432v160a48 48 0 0 0 48 48h160.384l163.376 118.816 0.08-0.112c7.936 5.792 17.6 9.296 28.16 9.296a48 48 0 0 0 48-48V288a48 48 0 0 0-48-48z m190.432 46.816l-45.536 45.552C584.32 381.632 608 444 608 512s-23.68 130.368-63.088 179.632l45.536 45.568A350.512 350.512 0 0 0 672 512c0-85.68-30.672-164.16-81.568-225.184z m124.784-124.768l-45.568 45.568C740.672 289.12 784 395.392 784 512s-43.328 222.88-114.336 304.368l45.568 45.584C797.776 768.784 848 646.288 848 512s-50.224-256.784-132.784-349.952z m124.672-124.672l-45.296 45.296C897.376 196.208 960 346.784 960 512s-62.624 315.776-165.408 429.328l45.296 45.296C954.224 861.472 1024 694.912 1024 512c0-182.896-69.776-349.456-184.112-474.624z" fill="#5a5a5a"></path></svg>
